<svg xmlns="http://www.w3.org/2000/svg" width="28" height="28" viewBox="0 0 48 48" fill="none" role="img" aria-label="Colonnade" class="" color="#E8E2D6"><style>.fill-foreground,.fill-current,.fill-primary,.fill-background{fill:currentColor}.stroke-foreground,.stroke-current,.stroke-primary{stroke:currentColor}.text-foreground,.text-primary{color:currentColor}</style><defs><linearGradient id="cn-shaft" x1="0" y1="0" x2="0" y2="1"><stop offset="0%" stop-color="var(--color-brass-300)"></stop><stop offset="55%" stop-color="var(--color-brass-400)"></stop><stop offset="100%" stop-color="var(--color-brass-600)"></stop></linearGradient><linearGradient id="cn-beam" x1="0" y1="0" x2="1" y2="0"><stop offset="0%" stop-color="var(--color-stone-100)"></stop><stop offset="100%" stop-color="var(--color-stone-300)"></stop></linearGradient></defs><rect x="4" y="9.5" width="40" height="5.4" rx="1.6" fill="url(#cn-beam)"></rect><g><rect x="9.200000000000001" y="16.4" width="6.4" height="2.1" rx="0.7" fill="var(--color-brass-300)"></rect><rect x="10.4" y="18.5" width="4" height="18.6" rx="0.6" fill="url(#cn-shaft)"></rect><rect x="12.200000000000001" y="20" width="0.5" height="15.6" rx="0.25" fill="var(--color-shadow-900)" opacity="0.28"></rect><title>Column 1</title></g><g><rect x="18.7" y="16.4" width="6.4" height="2.1" rx="0.7" fill="var(--color-brass-300)"></rect><rect x="19.9" y="18.5" width="4" height="18.6" rx="0.6" fill="url(#cn-shaft)"></rect><rect x="21.7" y="20" width="0.5" height="15.6" rx="0.25" fill="var(--color-shadow-900)" opacity="0.28"></rect><title>Column 2</title></g><g><rect x="26.900000000000002" y="16.4" width="6.4" height="2.1" rx="0.7" fill="var(--color-brass-300)"></rect><rect x="28.1" y="18.5" width="4" height="18.6" rx="0.6" fill="url(#cn-shaft)"></rect><rect x="29.900000000000002" y="20" width="0.5" height="15.6" rx="0.25" fill="var(--color-shadow-900)" opacity="0.28"></rect><title>Column 3</title></g><g><rect x="36.4" y="16.4" width="6.4" height="2.1" rx="0.7" fill="var(--color-brass-300)"></rect><rect x="37.6" y="18.5" width="4" height="18.6" rx="0.6" fill="url(#cn-shaft)"></rect><rect x="39.4" y="20" width="0.5" height="15.6" rx="0.25" fill="var(--color-shadow-900)" opacity="0.28"></rect><title>Column 4</title></g><rect x="4" y="37.1" width="40" height="5.4" rx="1.6" fill="url(#cn-beam)"></rect><style>@keyframes cn-rise { from { transform: scaleY(0); opacity: 0 } to { transform: scaleY(1); opacity: 1 } }</style></svg>