<svg xmlns="http://www.w3.org/2000/svg" width="100%" height="100%" viewBox="0 0 1600 900" preserveAspectRatio="xMidYMid slice" style="position:absolute;inset:0;opacity:0.05" color="#E8E2D6"><style>.fill-foreground,.fill-current,.fill-primary,.fill-background{fill:currentColor}.stroke-foreground,.stroke-current,.stroke-primary{stroke:currentColor}.text-foreground,.text-primary{color:currentColor}</style><g stroke="var(--pitch-line)" stroke-width="2" fill="none"><line x1="800" y1="0" x2="800" y2="900"></line><circle cx="800" cy="450" r="110"></circle><circle cx="800" cy="450" r="4" fill="var(--pitch-line)" stroke="none"></circle><rect x="0" y="230" width="200" height="440"></rect><rect x="0" y="340" width="70" height="220"></rect><path d="M 200 360 A 110 110 0 0 1 200 540"></path><rect x="1400" y="230" width="200" height="440"></rect><rect x="1530" y="340" width="70" height="220"></rect><path d="M 1400 540 A 110 110 0 0 1 1400 360"></path><path d="M 0 24 A 24 24 0 0 1 24 0"></path><path d="M 1576 0 A 24 24 0 0 1 1600 24"></path><path d="M 1600 876 A 24 24 0 0 1 1576 900"></path><path d="M 24 900 A 24 24 0 0 1 0 876"></path></g></svg>