<svg xmlns="http://www.w3.org/2000/svg" viewBox="0 0 64 64" width="26" height="26" class="shrink-0" role="img" aria-label="Mettle" color="#E8E2D6"><style>.fill-foreground,.fill-current,.fill-primary,.fill-background{fill:currentColor}.stroke-foreground,.stroke-current,.stroke-primary{stroke:currentColor}.text-foreground,.text-primary{color:currentColor}</style><defs><linearGradient id="die-s" x1="0" y1="0" x2="0" y2="1"><stop offset="0" stop-color="#23282F"></stop><stop offset="1" stop-color="#0C0E11"></stop></linearGradient><linearGradient id="steel-s" x1="0.1" y1="0" x2="0.9" y2="1"><stop offset="0" stop-color="#F2F6FA"></stop><stop offset="0.45" stop-color="#C3CEDA"></stop><stop offset="1" stop-color="#7E8D9E"></stop></linearGradient><linearGradient id="molten-s" x1="0" y1="0" x2="1" y2="1"><stop offset="0" stop-color="#FFC24A"></stop><stop offset="1" stop-color="#FF5F1F"></stop></linearGradient><linearGradient id="strike-s" x1="0" y1="0" x2="1" y2="1"><stop offset="0" stop-color="#FFFFFF" stop-opacity="0.14"></stop><stop offset="0.5" stop-color="#FFFFFF" stop-opacity="0"></stop><stop offset="1" stop-color="#000000" stop-opacity="0.25"></stop></linearGradient><clipPath id="clip-s"><path d="M14 3h36a11 11 0 0 1 11 11v29a8 8 0 0 1-2.34 5.66l-8 8A8 8 0 0 1 45 59H14A11 11 0 0 1 3 48V14A11 11 0 0 1 14 3Z"></path></clipPath></defs><path d="M14 3h36a11 11 0 0 1 11 11v29a8 8 0 0 1-2.34 5.66l-8 8A8 8 0 0 1 45 59H14A11 11 0 0 1 3 48V14A11 11 0 0 1 14 3Z" fill="url(#die-s)"></path><path d="M61 43a8 8 0 0 1-2.34 5.66l-8 8A8 8 0 0 1 45 59h-1l17-17Z" fill="url(#molten-s)" opacity="0.9"></path><g clip-path="url(#clip-s)"><path d="M15 47V21l17 16 17-16v26" fill="none" stroke="#000000" stroke-opacity="0.55" stroke-width="7.5" stroke-linejoin="miter" transform="translate(1.4,1.6)"></path><path d="M15 47V21l17 16 17-16v26" fill="none" stroke="url(#steel-s)" stroke-width="7.5" stroke-linejoin="miter"></path><path d="M15 21l17 16 17-16" fill="none" stroke="#FFFFFF" stroke-opacity="0.5" stroke-width="1.4" stroke-linejoin="miter" transform="translate(0,-2.6)"></path><rect width="64" height="64" fill="url(#strike-s)"></rect></g><path d="M14 3h36a11 11 0 0 1 11 11v29a8 8 0 0 1-2.34 5.66l-8 8A8 8 0 0 1 45 59H14A11 11 0 0 1 3 48V14A11 11 0 0 1 14 3Z" fill="none" stroke="#FFFFFF" stroke-opacity="0.13" stroke-width="1.25"></path></svg>