<svg xmlns="http://www.w3.org/2000/svg" width="28" height="28" viewBox="0 0 40 40" fill="none" role="img" aria-label="SolGig" color="#E8E2D6"><style>.fill-foreground,.fill-current,.fill-primary,.fill-background{fill:currentColor}.stroke-foreground,.stroke-current,.stroke-primary{stroke:currentColor}.text-foreground,.text-primary{color:currentColor}</style><defs><linearGradient id="sg-top" x1="8" y1="8" x2="34" y2="14"><stop offset="0" stop-color="#9945FF"></stop><stop offset="1" stop-color="#7C6CFF"></stop></linearGradient><linearGradient id="sg-bottom" x1="6" y1="28" x2="32" y2="34"><stop offset="0" stop-color="#2BD9A8"></stop><stop offset="1" stop-color="#14F195"></stop></linearGradient></defs><path d="M13 8h18.4a1.3 1.3 0 0 1 .92 2.22l-3.4 3.4a2.6 2.6 0 0 1-1.84.76H8.6a1.3 1.3 0 0 1-.92-2.22l3.4-3.4A2.6 2.6 0 0 1 13 8Z" fill="url(#sg-top)"></path><path d="M11.5 16.6 17 20l-5.5 3.4" stroke="currentColor" stroke-width="3" stroke-linecap="round" stroke-linejoin="round"></path><path d="M21.5 23.2h8" stroke="currentColor" stroke-width="3" stroke-linecap="round" opacity="0.55"></path><path d="M11.9 25.6h18.5a1.3 1.3 0 0 1 .92 2.22l-3.4 3.4a2.6 2.6 0 0 1-1.84.78H7.5a1.3 1.3 0 0 1-.92-2.22l3.4-3.4a2.6 2.6 0 0 1 1.92-.78Z" fill="url(#sg-bottom)" transform="translate(0 2.4)"></path></svg>